<svg width="273" height="197" viewBox="0 0 273 197" fill="none" xmlns="http://www.w3.org/2000/svg">
<path d="M111.64 72H102.01L78.8797 134.1V135H87.0697L93.0097 118.53H120.55L126.49 135H134.86V134.1L111.64 72ZM95.5297 111.51L106.6 80.73H106.96L118.03 111.51H95.5297ZM177.847 109.08C186.037 106.74 191.437 100.26 191.437 90.9C191.437 80.19 184.327 72 171.457 72H146.527V135H154.357V110.07H169.657L186.217 135H194.767V134.1L177.847 109.08ZM154.357 79.2H171.007C178.927 79.2 183.247 83.61 183.247 90.99C183.247 98.55 178.927 102.87 171.007 102.87H154.357V79.2Z" fill="#171717"/>
<rect x="60.5" y="26.5" width="153" height="153" rx="7.5" stroke="#171717" stroke-width="5"/>
</svg>
