<svg width="199" height="146" viewBox="0 0 199 146" fill="none" xmlns="http://www.w3.org/2000/svg">
<path d="M3 143.28H196" stroke="#171717" stroke-width="5" stroke-linecap="round"/>
<path d="M20.4698 44.2158C20.4698 40.0737 23.8277 36.7158 27.9698 36.7158H170.496C174.638 36.7158 177.996 40.0737 177.996 44.2158V142.918H20.4698V44.2158Z" stroke="#171717" stroke-width="5"/>
<rect x="20.4698" y="2.5" width="157.526" height="23.8698" rx="7.5" stroke="#171717" stroke-width="5"/>
<path d="M128.147 115.844L131.492 142.61H138.853L142.198 115.844L146.882 111.494C146.883 99.1152 148.756 84.7285 134.838 84.7285C120.92 84.7285 123.128 101.123 123.128 111.494L128.147 115.844Z" stroke="#171717" stroke-width="5"/>
<circle cx="134.374" cy="74.6915" r="4.19146" stroke="#171717" stroke-width="5"/>
<path d="M91.8718 79.1212H51.8719C38.372 79.1212 44.872 67.1211 51.8719 67.1212C55.4719 57.5212 63.3721 57.6211 70.3721 61.6211C80.3721 55.1211 88.8718 57.6212 91.8718 67.1212C100.872 67.1212 100.872 79.1212 91.8718 79.1212Z" stroke="#171717" stroke-width="5" stroke-linejoin="round"/>
</svg>
