<svg width="26" height="25" viewBox="0 0 26 25" fill="none" xmlns="http://www.w3.org/2000/svg">
<path d="M2.7473 1.53981L2.04019 2.24692C1.25914 3.02797 1.25914 4.2943 2.04019 5.07535L20.425 23.4601C21.206 24.2412 22.4723 24.2412 23.2534 23.4601L23.9605 22.753C24.7416 21.972 24.7416 20.7056 23.9605 19.9246L5.57572 1.53981C4.79468 0.758764 3.52835 0.758764 2.7473 1.53981Z" fill="#FFDA00"/>
<path d="M2.04079 22.7529L2.7479 23.46C3.52894 24.241 4.79527 24.241 5.57632 23.46L23.9611 5.07522C24.7421 4.29417 24.7421 3.02784 23.9611 2.24679L23.254 1.53968C22.4729 0.758633 21.2066 0.758632 20.4256 1.53968L2.04079 19.9245C1.25974 20.7055 1.25974 21.9718 2.04079 22.7529Z" fill="#FFDA00"/>
</svg>
