<svg width="19" height="19" viewBox="0 0 19 19" fill="none" xmlns="http://www.w3.org/2000/svg">
<circle cx="9.5" cy="9.5" r="9" stroke="white"/>
<path d="M14.5 9.5C14.5 12.0514 13.9002 14.3367 12.9564 15.967C12.005 17.6102 10.7652 18.5 9.5 18.5C8.23478 18.5 6.99497 17.6102 6.04363 15.967C5.09977 14.3367 4.5 12.0514 4.5 9.5C4.5 6.94863 5.09977 4.66329 6.04363 3.033C6.99497 1.38977 8.23478 0.5 9.5 0.5C10.7652 0.5 12.005 1.38977 12.9564 3.033C13.9002 4.66329 14.5 6.94863 14.5 9.5Z" stroke="white"/>
<path d="M9.5 0.5V18.5" stroke="white"/>
<path d="M0.5 9.5L18.5 9.5" stroke="white"/>
</svg>
