<svg width="45" height="37" viewBox="0 0 45 37" fill="none" xmlns="http://www.w3.org/2000/svg">
<path d="M5.91489 0.720703C2.64794 0.720703 0 3.56954 0 7.08436C0 10.5992 2.64794 13.448 5.91489 13.448C9.18184 13.448 11.8298 10.5992 11.8298 7.08436C11.8298 3.56954 9.18124 0.720703 5.91489 0.720703Z" fill="#E61753"/>
<path d="M31.6709 13.4404L43.5007 7.08446L31.6709 0.728516V13.4404Z" fill="#4D2A86"/>
<path d="M0 26.1145H2.03436C2.12226 27.3632 2.92715 27.9801 4.18532 27.9801C5.6486 27.9801 6.26333 27.4582 6.26333 26.6203C6.26333 25.8774 5.82441 25.482 4.85866 25.2611L3.36608 24.9135C1.59543 24.5026 0.336668 23.6964 0.336668 21.6886C0.336668 19.8229 1.82925 18.5587 4.19967 18.5587C6.49715 18.5587 8.13623 19.9973 8.15059 22.0685H6.11742C6.05882 21.2151 5.48834 20.5032 4.17097 20.5032C2.94151 20.5032 2.40033 21.009 2.40033 21.6886C2.40033 22.2577 2.72204 22.6686 3.7177 22.9057L5.10802 23.2216C7.01022 23.6486 8.32759 24.5498 8.32759 26.5731C8.32759 28.5493 7.05447 29.9085 4.18652 29.9085C1.52188 29.9085 0.102854 28.4065 0 26.1145Z" fill="#171717"/>
<path d="M10.4487 27.4111V23.3483H9.20483V21.5459H10.5216V19.823L12.2629 19.3804H12.4095V21.5465H14.2387V23.3489H12.4095V26.9537C12.4095 27.7282 12.7168 28.0603 13.3902 28.0603C13.6682 28.0603 13.9026 28.0131 14.1221 27.9337H14.268V29.7044C14.0336 29.7832 13.4781 29.9098 12.834 29.9098C11.1513 29.9086 10.4487 28.8652 10.4487 27.4111Z" fill="#171717"/>
<path d="M22.5364 21.5458V26.5731C22.5364 28.3439 21.4684 29.9085 19.171 29.9085H19.156C16.8442 29.9085 15.7905 28.3439 15.7905 26.5731V21.5458H17.7513V26.2411C17.7513 27.2844 18.161 27.933 19.171 27.933C20.166 27.933 20.5756 27.285 20.5756 26.2411V21.5458H22.5364Z" fill="#171717"/>
<path d="M23.8682 25.6567C23.8682 23.2064 25.0097 21.404 26.9998 21.404C28.0828 21.404 28.7119 21.8943 29.0922 22.4318H29.1508V18.0686H31.1116V29.7673H29.3553L29.1502 28.8823H29.0916C28.7113 29.4197 28.0822 29.9101 26.9992 29.9101C25.0534 29.9094 23.8682 28.1703 23.8682 25.6567ZM29.2243 25.6567C29.2243 24.3763 28.7854 23.2697 27.5416 23.2697C26.2828 23.2697 25.8589 24.3601 25.8589 25.6567C25.8589 26.9371 26.3127 28.0437 27.5416 28.0437C28.7705 28.0444 29.2243 26.9371 29.2243 25.6567Z" fill="#171717"/>
<path d="M32.5312 19.2214C32.5312 18.4469 32.9409 17.9565 33.7458 17.9565C34.5214 17.9565 34.9603 18.4469 34.9603 19.2214C34.9603 20.0277 34.5214 20.518 33.7458 20.518C32.9415 20.518 32.5312 20.0277 32.5312 19.2214ZM32.7507 21.5458H34.7115V29.7664H32.7507V21.5458Z" fill="#171717"/>
<path d="M35.9409 25.672C35.9409 23.2378 37.214 21.4037 39.6431 21.4037C42.0578 21.4037 43.3309 23.2378 43.3309 25.672C43.3309 28.0907 42.0871 29.9085 39.6431 29.9085C37.1847 29.9085 35.9409 28.1062 35.9409 25.672ZM41.3408 25.672C41.3408 24.0912 40.741 23.2688 39.6431 23.2688C38.5308 23.2688 37.9454 24.1067 37.9454 25.672C37.9454 27.2373 38.5452 28.0435 39.6431 28.0435C40.741 28.0435 41.3408 27.2366 41.3408 25.672Z" fill="#171717"/>
<path d="M42.3323 35.8671C42.002 35.8671 41.8184 35.6038 41.8184 35.264C41.8184 34.9242 42.0026 34.657 42.3323 34.657C42.6562 34.657 42.8462 34.9242 42.8462 35.264C42.8462 35.6038 42.6562 35.8671 42.3323 35.8671ZM42.3323 34.0924C41.7149 34.0924 41.2478 34.6166 41.2478 35.264C41.2478 35.9114 41.7149 36.4311 42.3323 36.4311C42.9497 36.4311 43.4162 35.9114 43.4162 35.264C43.4162 34.6166 42.9497 34.0924 42.3323 34.0924Z" fill="#171717"/>
<path d="M17.012 35.8671C16.6828 35.8671 16.4993 35.6038 16.4993 35.264C16.4993 34.9242 16.6834 34.657 17.012 34.657C17.3359 34.657 17.5259 34.9242 17.5259 35.264C17.5259 35.6038 17.3353 35.8671 17.012 35.8671ZM17.012 34.0924C16.3946 34.0924 15.9275 34.6166 15.9275 35.264C15.9275 35.9114 16.3946 36.4311 17.012 36.4311C17.6293 36.4311 18.0965 35.9114 18.0965 35.264C18.0965 34.6166 17.6293 34.0924 17.012 34.0924Z" fill="#171717"/>
<path d="M1.4277 34.6245V35.0148H2.27892C2.28652 35.0148 2.29353 35.0148 2.29762 35.0161C2.29879 35.0161 2.30055 35.0161 2.30113 35.0167C2.3023 35.0173 2.30347 35.0186 2.30464 35.0192C2.30581 35.0199 2.30756 35.0218 2.30815 35.023C2.30873 35.0249 2.31049 35.0268 2.31107 35.0293C2.31107 35.0319 2.31166 35.035 2.31282 35.0376C2.31341 35.0432 2.31341 35.0483 2.31341 35.0565V35.4531C2.31341 35.4834 2.30405 35.4999 2.27892 35.4999H1.4277V35.8902H2.29938C2.33562 35.8902 2.33562 35.8902 2.33562 35.9338V36.3285C2.33562 36.3683 2.33153 36.3752 2.29938 36.3752H0.927259C0.897443 36.3752 0.893351 36.3683 0.893351 36.3285V34.171C0.893351 34.142 0.891012 34.1382 0.921997 34.1382H2.30113C2.3327 34.1382 2.33562 34.142 2.33562 34.1805V34.5771C2.33562 34.6074 2.32627 34.6239 2.30113 34.6239H1.4277V34.6245Z" fill="#171717"/>
<path d="M6.56886 36.4315C5.98482 36.4315 5.70361 36.0753 5.70361 35.5315V34.1584C5.70361 34.1389 5.70361 34.1389 5.72057 34.1389H6.2327C6.25258 34.1389 6.25258 34.1389 6.25258 34.1654V35.6338C6.25258 35.8542 6.42387 35.9471 6.57412 35.9471C6.72086 35.9471 6.8945 35.858 6.8945 35.6338V34.1622C6.8945 34.1433 6.8945 34.1395 6.91379 34.1395H7.41423C7.43002 34.1395 7.43002 34.1395 7.43002 34.1622V35.565C7.43002 36.0949 7.1757 36.4315 6.56886 36.4315Z" fill="#171717"/>
<path d="M11.7632 35.2712H11.461V34.6245H11.7632C11.9398 34.6245 12.0216 34.7647 12.0216 34.9478C12.021 35.131 11.9398 35.2712 11.7632 35.2712ZM12.7489 36.2862C12.5729 35.976 12.3975 35.6445 12.318 35.508C12.5039 35.4133 12.6022 35.1973 12.6022 34.8941C12.6022 34.488 12.3519 34.1394 11.8819 34.1394H10.9348C10.9255 34.1394 10.9097 34.1356 10.9097 34.1691V36.3462C10.9097 36.379 10.9097 36.3765 10.9348 36.3765H11.437C11.458 36.3765 11.461 36.3727 11.461 36.3462V35.7228H11.8158C11.8457 35.7739 12.0427 36.1125 12.138 36.3102C12.1654 36.3695 12.1789 36.3765 12.2034 36.3765H12.7425C12.7764 36.3758 12.7851 36.3518 12.7489 36.2862Z" fill="#171717"/>
<path d="M32.8596 36.3752H31.5682C31.5396 36.3752 31.5396 36.3778 31.5396 36.3449V34.1685C31.5396 34.1344 31.5396 34.1382 31.5682 34.1382H32.0622C32.0868 34.1382 32.0891 34.142 32.0891 34.1685V35.894H32.8567C32.8813 35.894 32.8836 35.9003 32.8836 35.9268V36.3449C32.8836 36.3721 32.8836 36.3752 32.8596 36.3752Z" fill="#171717"/>
<path d="M37.0788 36.4318C36.4281 36.4318 35.9961 35.9012 35.9961 35.2671C35.9961 34.5914 36.4655 34.0924 37.0642 34.0924C37.567 34.0924 37.8768 34.3867 38.013 34.7234C38.0294 34.7619 38.0171 34.7758 38.0049 34.7827L37.5489 34.9741C37.5307 34.9804 37.5284 34.9741 37.5225 34.957C37.4337 34.7594 37.2875 34.6577 37.0747 34.6577C36.7701 34.6577 36.5743 34.9179 36.5743 35.2709C36.5743 35.6834 36.8292 35.8716 37.0858 35.8716C37.2916 35.8716 37.4384 35.7629 37.5126 35.5949C37.5225 35.5779 37.5261 35.5659 37.5489 35.5716L38.0072 35.7074C38.0382 35.7137 38.0394 35.7301 38.0341 35.7503C37.8973 36.1084 37.5564 36.4318 37.0788 36.4318Z" fill="#171717"/>
<path d="M26.9647 35.6256L27.1775 35.0881L27.3903 35.6256H26.9647ZM28.2544 36.3286C27.9509 35.6724 27.3154 34.2835 27.1973 34.0246C27.1892 34.0075 27.1664 34.0075 27.1582 34.0246C27.0401 34.2829 26.4046 35.6724 26.1012 36.3286C26.083 36.3715 26.0877 36.3753 26.1146 36.3753H26.6852C26.7016 36.3753 26.7127 36.3715 26.722 36.3469C26.7589 36.2597 26.8051 36.1366 26.8343 36.0545H27.5206C27.5505 36.1359 27.5961 36.2591 27.6329 36.3469C27.6423 36.3709 27.6534 36.3753 27.6697 36.3753H28.2403C28.2678 36.3753 28.2719 36.3715 28.2544 36.3286Z" fill="#171717"/>
<path d="M22.6052 34.9712C22.6052 35.1588 22.5211 35.3142 22.3071 35.3142H22.051V34.6245H22.3071C22.5211 34.6245 22.6052 34.7836 22.6052 34.9712ZM22.4451 34.1388H21.5289C21.5172 34.1388 21.5015 34.135 21.5015 34.1685V36.3455C21.5015 36.3784 21.5015 36.3759 21.5289 36.3759H22.0235C22.0481 36.3759 22.051 36.3721 22.051 36.3455V35.8018H22.4445C22.866 35.8018 23.1706 35.4841 23.1706 34.9712C23.1712 34.4584 22.8672 34.1388 22.4451 34.1388Z" fill="#171717"/>
<path d="M43.9658 34.0229V34.1385H44.1003V34.5275H44.2201V34.1385H44.3546V34.0229H43.9658ZM44.8702 34.0229L44.7486 34.2471H44.7428L44.6183 34.0229H44.4867V34.5282H44.5966V34.2149H44.6025L44.7381 34.4467H44.7527L44.8843 34.218H44.8901V34.5282H45V34.0229H44.8702Z" fill="#171717"/>
<path d="M25.6134 0.720703H22.7744V13.448H25.6134V0.720703Z" fill="#FFDA00"/>
<path d="M19.6983 0.720703H16.8594V13.448H19.6983V0.720703Z" fill="#FFDA00"/>
</svg>
