<svg width="273" height="197" viewBox="0 0 273 197" fill="none" xmlns="http://www.w3.org/2000/svg">
<rect x="60.5" y="21.5" width="153" height="153" rx="7.5" stroke="#171717" stroke-width="5"/>
<path fill-rule="evenodd" clip-rule="evenodd" d="M161.535 140.536C165.953 140.536 169.535 136.954 169.535 132.536C169.535 128.117 165.953 124.536 161.535 124.536C157.117 124.536 153.535 128.117 153.535 132.536C153.535 136.954 157.117 140.536 161.535 140.536ZM161.535 145.536C168.715 145.536 174.535 139.715 174.535 132.536C174.535 125.356 168.715 119.536 161.535 119.536C154.355 119.536 148.535 125.356 148.535 132.536C148.535 139.715 154.355 145.536 161.535 145.536Z" fill="black"/>
<path fill-rule="evenodd" clip-rule="evenodd" d="M176.246 113.594C177.222 112.618 178.805 112.618 179.782 113.594C190.051 123.863 190.051 140.513 179.782 150.782C178.805 151.758 177.222 151.758 176.246 150.782C175.27 149.806 175.27 148.223 176.246 147.247C184.563 138.93 184.563 125.446 176.246 117.13C175.27 116.153 175.27 114.57 176.246 113.594ZM146.129 113.594C147.105 114.57 147.105 116.153 146.129 117.13C137.812 125.446 137.812 138.93 146.129 147.247C147.105 148.223 147.105 149.806 146.129 150.782C145.153 151.758 143.57 151.758 142.593 150.782C132.324 140.513 132.324 123.863 142.593 113.594C143.57 112.618 145.153 112.618 146.129 113.594Z" fill="black"/>
<path fill-rule="evenodd" clip-rule="evenodd" d="M185.137 105.224C186.113 104.248 187.696 104.248 188.673 105.224C203.708 120.26 203.708 144.637 188.673 159.673C187.696 160.649 186.113 160.649 185.137 159.673C184.161 158.697 184.161 157.114 185.137 156.137C198.22 143.054 198.22 121.843 185.137 108.76C184.161 107.784 184.161 106.201 185.137 105.224ZM137.759 105.224C138.736 106.201 138.736 107.784 137.759 108.76C124.677 121.843 124.677 143.054 137.759 156.137C138.736 157.114 138.736 158.697 137.759 159.673C136.783 160.649 135.2 160.649 134.224 159.673C119.188 144.637 119.188 120.26 134.224 105.224C135.2 104.248 136.783 104.248 137.759 105.224Z" fill="black"/>
<path fill-rule="evenodd" clip-rule="evenodd" d="M88.5869 103.812L137.613 77.359C141.471 75.2776 141.471 69.7224 137.613 67.641L88.587 41.1885C84.9272 39.2139 80.4934 41.8757 80.4934 46.0475L80.4934 98.9525C80.4934 103.124 84.9272 105.786 88.5869 103.812ZM140.214 82.2181C147.929 78.0553 147.929 66.9447 140.214 62.7819L91.1872 36.3295C83.8677 32.3802 75 37.704 75 46.0475L75 98.9525C75 107.296 83.8677 112.62 91.1871 108.671L140.214 82.2181Z" fill="black"/>
</svg>
