<svg width="244" height="158" viewBox="0 0 244 158" fill="none" xmlns="http://www.w3.org/2000/svg">
<path d="M3 107H108" stroke="#171717" stroke-width="5" stroke-linecap="round"/>
<path d="M134 48.5V34C134 30.134 130.866 27 127 27H24C20.134 27 17 30.134 17 34V107H107.637M134 67V75.0489" stroke="#171717" stroke-width="5" stroke-linecap="round"/>
<rect x="16.7638" y="2.5" width="117.291" height="16.7228" rx="4.5" stroke="#171717" stroke-width="5" stroke-linecap="round"/>
<path d="M51 54.7683V76.0706C51 79.3084 52.5677 82.3459 55.2068 84.2216L76 99M51 54.7683L70.2068 41.1174C73.6755 38.6521 78.3245 38.6521 81.7932 41.1174L101 54.7683M51 54.7683L76 72.5366M76 99L96.7932 84.2216C99.4323 82.3459 101 79.3084 101 76.0706V54.7683M76 99V72.5366M101 54.7683L76 72.5366" stroke="#171717" stroke-width="5" stroke-linecap="round"/>
<path d="M95 154.5H241" stroke="#171717" stroke-width="5" stroke-linecap="round"/>
<path d="M113.324 75.3838H222.272C224.757 75.3838 226.772 77.3985 226.772 79.8838V154.506H108.824V79.8838C108.824 77.3985 110.839 75.3838 113.324 75.3838Z" stroke="#171717" stroke-width="5" stroke-linecap="round"/>
<rect x="108.824" y="49.5" width="117.947" height="16.8393" rx="4.5" stroke="#171717" stroke-width="5" stroke-linecap="round"/>
<path d="M189.671 134.633L192.201 154.88H197.769L200.3 134.633L203.844 131.342C203.844 121.978 205.261 111.095 194.732 111.095C184.204 111.095 185.874 123.496 185.874 131.342L189.671 134.633Z" stroke="#171717" stroke-width="4" stroke-linecap="round"/>
<circle cx="194.381" cy="103.502" r="3.06193" stroke="#171717" stroke-width="4" stroke-linecap="round"/>
<path d="M162.229 106.854H131.97C121.758 106.854 126.675 97.7759 131.97 97.7759C134.694 90.5137 140.67 90.5893 145.965 93.6152C153.53 88.6982 159.96 90.5894 162.229 97.7759C169.038 97.7759 169.038 106.854 162.229 106.854Z" stroke="#171717" stroke-width="5" stroke-linecap="round" stroke-linejoin="round"/>
</svg>
