<svg width="273" height="197" viewBox="0 0 273 197" fill="none" xmlns="http://www.w3.org/2000/svg">
<path d="M119.267 88.3025C119.267 72.2353 115.846 46.8389 137.407 46.8389C158.968 46.8389 156.065 69.1256 156.065 88.3025" stroke="#171717" stroke-width="5" stroke-linecap="round"/>
<circle cx="136.689" cy="31.2902" r="7.86591" stroke="#171717" stroke-width="5" stroke-linecap="round"/>
<path d="M69 52.9576V110.407C69 120.111 73.694 129.216 81.599 134.844L137.755 174.831M69 52.9576L120.354 16.3905C130.77 8.97416 144.741 8.97415 155.156 16.3905L206.511 52.9576M69 52.9576L116.072 86.4755C122.959 91.3794 127.457 98.9617 128.46 107.357L131.248 130.71C131.641 134.005 134.436 136.486 137.755 136.486V136.486M137.755 174.831L193.912 134.844C201.817 129.216 206.511 120.111 206.511 110.407V52.9576M137.755 174.831V136.486M206.511 52.9576L159.439 86.4755C152.552 91.3794 148.054 98.9617 147.051 107.357L144.263 130.71C143.869 134.005 141.074 136.486 137.755 136.486V136.486" stroke="#171717" stroke-width="5" stroke-linecap="round"/>
</svg>
