<svg width="273" height="197" viewBox="0 0 273 197" fill="none" xmlns="http://www.w3.org/2000/svg">
<circle cx="89.8044" cy="148.267" r="6.55926" stroke="#171717" stroke-width="5"/>
<path d="M89.6885 51.2642V140.355M186.575 148.151H97.1413" stroke="#171717" stroke-width="5" stroke-linecap="round" stroke-linejoin="round"/>
<path d="M80 60.2076L89.6887 51.2642L99.3774 60.2076" stroke="#171717" stroke-width="5" stroke-linecap="round" stroke-linejoin="round"/>
<path d="M179.122 138.462L188.065 148.151L179.122 157.84" stroke="#171717" stroke-width="5" stroke-linecap="round" stroke-linejoin="round"/>
<path d="M114.283 148.151L114.283 142.934" stroke="#171717" stroke-width="5" stroke-linecap="round" stroke-linejoin="round"/>
<path d="M132.915 148.151L132.915 142.934" stroke="#171717" stroke-width="5" stroke-linecap="round" stroke-linejoin="round"/>
<path d="M150.802 148.151L150.802 142.934" stroke="#171717" stroke-width="5" stroke-linecap="round" stroke-linejoin="round"/>
<path d="M168.688 148.151L168.688 142.934" stroke="#171717" stroke-width="5" stroke-linecap="round" stroke-linejoin="round"/>
<path d="M89.6895 70.6416L94.9064 70.6416" stroke="#171717" stroke-width="5" stroke-linecap="round" stroke-linejoin="round"/>
<path d="M89.6885 89.2734L94.9055 89.2734" stroke="#171717" stroke-width="5" stroke-linecap="round" stroke-linejoin="round"/>
<path d="M89.6885 107.16L94.9055 107.16" stroke="#171717" stroke-width="5" stroke-linecap="round" stroke-linejoin="round"/>
<path d="M89.6885 125.047L94.9055 125.047" stroke="#171717" stroke-width="5" stroke-linecap="round" stroke-linejoin="round"/>
<rect x="59.5" y="21.5" width="153" height="153" rx="7.5" stroke="#171717" stroke-width="5"/>
<path fill-rule="evenodd" clip-rule="evenodd" d="M131.993 112.812L181.02 86.359C184.877 84.2776 184.877 78.7224 181.02 76.641L131.993 50.1885C128.333 48.2139 123.9 50.8757 123.9 55.0475L123.9 107.952C123.9 112.124 128.333 114.786 131.993 112.812ZM183.62 91.2181C191.335 87.0553 191.335 75.9447 183.62 71.7819L134.593 45.3295C127.274 41.3802 118.406 46.704 118.406 55.0475L118.406 107.952C118.406 116.296 127.274 121.62 134.593 117.671L183.62 91.2181Z" fill="black"/>
</svg>
