<svg width="985" height="1281" viewBox="0 0 985 1281" fill="none" xmlns="http://www.w3.org/2000/svg">
<path d="M384.479 112.49L409.956 79.0996L397.236 69.3939L381.464 90.0639L340.919 59.127L331.213 71.847L384.479 112.49Z" fill="#26C9FA"/>
<path fill-rule="evenodd" clip-rule="evenodd" d="M637.308 278.99C631.612 286.454 633.046 297.122 640.511 302.817C647.975 308.513 658.643 307.079 664.338 299.615C670.033 292.151 668.599 281.483 661.135 275.787C653.671 270.092 643.003 271.526 637.308 278.99ZM623.793 268.678C612.402 283.606 615.27 304.942 630.198 316.332C645.126 327.723 666.462 324.855 677.853 309.927C689.244 294.999 686.376 273.663 671.447 262.272C656.519 250.882 635.183 253.749 623.793 268.678Z" fill="#4285F5"/>
<path d="M708.25 68.9703C722.74 80.0259 725.523 100.734 714.467 115.223L713.254 116.813C702.198 131.303 681.49 134.086 667.001 123.03L639.971 102.406L681.22 48.3456L708.25 68.9703Z" fill="#4AF2CF"/>
<path d="M681.899 159.555C659.118 189.412 616.447 195.147 586.59 172.366L627.839 118.306L681.899 159.555Z" fill="#E6E6E6"/>
<path d="M540.577 52.981L500.237 105.849L468.089 39.18L540.577 52.981Z" fill="#593B82"/>
<path fill-rule="evenodd" clip-rule="evenodd" d="M574.596 99.0642C567.132 93.3688 556.464 94.8027 550.769 102.267C545.074 109.731 546.508 120.399 553.972 126.094C561.436 131.79 572.104 130.356 577.799 122.892C583.494 115.427 582.06 104.759 574.596 99.0642ZM584.909 85.5491C569.98 74.1584 548.645 77.0263 537.254 91.9546C525.863 106.883 528.731 128.219 543.659 139.609C558.588 151 579.923 148.132 591.314 133.204C602.705 118.276 599.837 96.9398 584.909 85.5491Z" fill="#4285F5"/>
<path d="M706.544 178.36L665.295 232.42L701.865 260.324L711.716 247.414L687.866 229.216L709.414 200.975L733.264 219.174L743.114 206.264L706.544 178.36Z" fill="#FFA600"/>
<path d="M580.953 56.1153L614.343 81.5928L624.048 68.8727L603.378 53.101L634.315 12.5559L621.595 2.85015L580.953 56.1153Z" fill="#26C9FA"/>
<path d="M734.279 379.397L759.757 346.007L747.037 336.301L731.265 356.971L690.72 326.034L681.014 338.754L734.279 379.397Z" fill="#26C9FA"/>
<circle cx="510.903" cy="182.54" r="34" transform="rotate(-142.655 510.903 182.54)" fill="#F0335E"/>
<rect x="463.12" y="156.143" width="68" height="16" transform="rotate(-142.655 463.12 156.143)" fill="#FCD926"/>
<rect x="796.342" y="299.708" width="68" height="16" transform="rotate(-142.655 796.342 299.708)" fill="#FCD926"/>
<path d="M833.459 249.414L873.799 196.546L801.007 183.143L833.459 249.414Z" fill="#593B82"/>
<path d="M839.151 129.857L893.211 171.106L921.115 134.536L908.205 124.685L890.007 148.535L861.766 126.987L879.965 103.137L867.055 93.2866L839.151 129.857Z" fill="#FFA600"/>
<circle cx="757.586" cy="149.382" r="34" transform="rotate(-142.655 757.586 149.382)" fill="#F0335E"/>
<circle cx="934.308" cy="62.8429" r="34" transform="rotate(-142.655 934.308 62.8429)" fill="#F0335E"/>
<rect x="784.777" y="102.206" width="68" height="16" transform="rotate(-52.6554 784.777 102.206)" fill="#FCD926"/>
<path d="M607.893 256.545C596.837 271.034 576.129 273.818 561.64 262.762L560.05 261.549C545.561 250.493 542.777 229.785 553.833 215.296L574.458 188.266L628.518 229.515L607.893 256.545Z" fill="#4AF2CF"/>
<path fill-rule="evenodd" clip-rule="evenodd" d="M110.784 98.6219C105.089 106.086 106.523 116.754 113.987 122.449C121.451 128.145 132.119 126.711 137.814 119.247C143.51 111.782 142.076 101.115 134.612 95.4192C127.148 89.7239 116.48 91.1578 110.784 98.6219ZM97.2693 88.3096C85.8787 103.238 88.7465 124.574 103.675 135.964C118.603 147.355 139.939 144.487 151.329 129.559C162.72 114.631 159.852 93.2948 144.924 81.9042C129.996 70.5135 108.66 73.3813 97.2693 88.3096Z" fill="#4285F5"/>
<path d="M91.5423 151.864C106.032 162.92 108.815 183.628 97.7593 198.117L96.5461 199.707C85.4904 214.197 64.7822 216.98 50.293 205.924L23.2629 185.3L64.5122 131.24L91.5423 151.864Z" fill="#4AF2CF"/>
<path d="M89.8362 261.254L48.5869 315.314L85.157 343.218L95.0076 330.308L71.1575 312.11L92.7056 283.869L116.556 302.068L126.406 289.158L89.8362 261.254Z" fill="#FFA600"/>
<path d="M117.571 462.29L143.049 428.9L130.329 419.195L114.557 439.865L74.0119 408.928L64.3062 421.648L117.571 462.29Z" fill="#26C9FA"/>
<rect x="179.634" y="382.602" width="68" height="16" transform="rotate(-142.655 179.634 382.602)" fill="#FCD926"/>
<path d="M216.751 332.308L257.091 279.44L184.299 266.036L216.751 332.308Z" fill="#593B82"/>
<path d="M201.084 98.9697L241.424 46.1021L273.573 112.771L201.084 98.9697Z" fill="#593B82"/>
<path d="M222.443 212.751L276.503 254L304.407 217.43L291.497 207.579L273.299 231.429L245.058 209.881L263.257 186.031L250.347 176.181L222.443 212.751Z" fill="#FFA600"/>
<circle cx="140.878" cy="232.276" r="34" transform="rotate(-142.655 140.878 232.276)" fill="#F0335E"/>
<circle cx="317.601" cy="145.737" r="34" transform="rotate(-142.655 317.601 145.737)" fill="#F0335E"/>
<rect x="168.069" y="185.1" width="68" height="16" transform="rotate(-52.6554 168.069 185.1)" fill="#FCD926"/>
<path d="M214.394 25.4775L181.004 0L171.298 12.72L191.968 28.4918L161.031 69.0369L173.751 78.7426L214.394 25.4775Z" fill="#26C9FA"/>
<path fill-rule="evenodd" clip-rule="evenodd" d="M370.402 628.791C364.706 636.255 366.14 646.923 373.604 652.618C381.068 658.314 391.736 656.88 397.432 649.416C403.127 641.951 401.693 631.283 394.229 625.588C386.765 619.893 376.097 621.327 370.402 628.791ZM356.887 618.479C345.496 633.407 348.364 654.743 363.292 666.133C378.22 677.524 399.556 674.656 410.947 659.728C422.337 644.8 419.47 623.464 404.541 612.073C389.613 600.682 368.277 603.55 356.887 618.479Z" fill="#4285F5"/>
<path fill-rule="evenodd" clip-rule="evenodd" d="M460.585 365.529C454.89 372.993 456.324 383.661 463.788 389.356C471.252 395.051 481.92 393.617 487.615 386.153C493.311 378.689 491.877 368.021 484.413 362.326C476.948 356.631 466.28 358.065 460.585 365.529ZM447.07 355.216C435.679 370.145 438.547 391.48 453.476 402.871C468.404 414.262 489.74 411.394 501.13 396.466C512.521 381.537 509.653 360.202 494.725 348.811C479.797 337.42 458.461 340.288 447.07 355.216Z" fill="#4285F5"/>
<path d="M455.181 293.482L496.431 239.421L459.861 211.517L450.01 224.427L473.86 242.626L452.312 270.866L428.462 252.668L418.611 265.578L455.181 293.482Z" fill="#FFA600"/>
<path d="M512.013 472.441C526.502 483.497 529.286 504.205 518.23 518.695L517.017 520.285C505.961 534.774 485.253 537.557 470.764 526.502L443.734 505.877L484.983 451.817L512.013 472.441Z" fill="#4AF2CF"/>
<path d="M414.992 509.356C392.211 539.213 349.539 544.948 319.683 522.167L360.932 468.107L414.992 509.356Z" fill="#E6E6E6"/>
<path d="M273.67 402.782L233.331 455.649L201.182 388.981L273.67 402.782Z" fill="#593B82"/>
<circle cx="334.18" cy="269.078" r="34" transform="rotate(-142.655 334.18 269.078)" fill="#F0335E"/>
<path fill-rule="evenodd" clip-rule="evenodd" d="M307.689 448.865C300.225 443.17 289.557 444.604 283.862 452.068C278.166 459.532 279.6 470.2 287.064 475.895C294.529 481.59 305.196 480.156 310.892 472.692C316.587 465.228 315.153 454.56 307.689 448.865ZM318.001 435.35C303.073 423.959 281.737 426.827 270.347 441.755C258.956 456.684 261.824 478.019 276.752 489.41C291.68 500.801 313.016 497.933 324.407 483.005C335.798 468.076 332.93 446.741 318.001 435.35Z" fill="#4285F5"/>
<path d="M239.816 336.699L293.876 377.948L321.78 341.378L308.87 331.528L290.672 355.378L262.431 333.83L280.63 309.979L267.72 300.129L239.816 336.699Z" fill="#FFA600"/>
<path d="M439.637 528.161L398.388 582.221L434.958 610.125L444.808 597.215L420.958 579.017L442.506 550.777L466.356 568.975L476.207 556.065L439.637 528.161Z" fill="#FFA600"/>
<path d="M314.045 405.916L347.436 431.394L357.141 418.674L336.471 402.902L367.408 362.357L354.688 352.651L314.045 405.916Z" fill="#26C9FA"/>
<path d="M410.546 370.114C380.689 347.333 374.954 304.661 397.735 274.805L451.795 316.054L410.546 370.114Z" fill="#E6E6E6"/>
<path fill-rule="evenodd" clip-rule="evenodd" d="M401.076 209.43C406.771 201.966 405.337 191.298 397.873 185.603C390.409 179.908 379.741 181.342 374.046 188.806C368.351 196.27 369.784 206.938 377.249 212.633C384.713 218.328 395.381 216.894 401.076 209.43ZM414.591 219.743C425.982 204.814 423.114 183.479 408.186 172.088C393.257 160.697 371.922 163.565 360.531 178.493C349.14 193.422 352.008 214.757 366.936 226.148C381.865 237.539 403.2 234.671 414.591 219.743Z" fill="#4285F5"/>
<path d="M467.373 729.198L492.851 695.808L480.131 686.102L464.359 706.772L423.814 675.835L414.108 688.555L467.373 729.198Z" fill="#26C9FA"/>
<circle cx="243.996" cy="532.34" r="34" transform="rotate(-142.655 243.996 532.34)" fill="#F0335E"/>
<rect x="196.213" y="505.943" width="68" height="16" transform="rotate(-142.655 196.213 505.943)" fill="#FCD926"/>
<rect x="529.435" y="649.509" width="68" height="16" transform="rotate(-142.655 529.435 649.509)" fill="#FCD926"/>
<path d="M566.553 599.215L606.893 546.347L534.101 532.944L566.553 599.215Z" fill="#593B82"/>
<path d="M550.885 365.877L591.225 313.009L623.373 379.678L550.885 365.877Z" fill="#593B82"/>
<path d="M572.244 479.658L626.304 520.907L654.208 484.337L641.298 474.487L623.1 498.337L594.859 476.788L613.057 452.938L600.147 443.088L572.244 479.658Z" fill="#FFA600"/>
<circle cx="420.389" cy="445.472" r="34" transform="rotate(-142.655 420.389 445.472)" fill="#F0335E"/>
<circle cx="667.402" cy="412.644" r="34" transform="rotate(-142.655 667.402 412.644)" fill="#F0335E"/>
<rect x="517.87" y="452.006" width="68" height="16" transform="rotate(-52.6554 517.87 452.006)" fill="#FCD926"/>
<path d="M340.986 606.346C329.93 620.836 309.222 623.619 294.733 612.564L293.143 611.35C278.653 600.295 275.87 579.586 286.926 565.097L307.55 538.067L361.61 579.316L340.986 606.346Z" fill="#4AF2CF"/>
<path d="M564.195 292.385L530.805 266.907L521.099 279.627L541.769 295.399L510.832 335.944L523.552 345.65L564.195 292.385Z" fill="#26C9FA"/>
<circle cx="50.6942" cy="495.538" r="34" transform="rotate(-142.655 50.6942 495.538)" fill="#F0335E"/>
<path fill-rule="evenodd" clip-rule="evenodd" d="M103.494 978.592C97.799 986.056 99.2329 996.724 106.697 1002.42C114.161 1008.11 124.829 1006.68 130.524 999.216C136.22 991.752 134.786 981.084 127.322 975.389C119.858 969.694 109.19 971.128 103.494 978.592ZM89.9793 968.279C78.5886 983.208 81.4564 1004.54 96.3847 1015.93C111.313 1027.32 132.649 1024.46 144.039 1009.53C155.43 994.6 152.562 973.265 137.634 961.874C122.706 950.483 101.37 953.351 89.9793 968.279Z" fill="#4285F5"/>
<path fill-rule="evenodd" clip-rule="evenodd" d="M193.678 715.33C187.983 722.794 189.416 733.462 196.881 739.157C204.345 744.853 215.013 743.419 220.708 735.955C226.403 728.49 224.969 717.823 217.505 712.127C210.041 706.432 199.373 707.866 193.678 715.33ZM180.163 705.018C168.772 719.946 171.64 741.282 186.568 752.672C201.497 764.063 222.832 761.195 234.223 746.267C245.614 731.339 242.746 710.003 227.818 698.612C212.889 687.222 191.554 690.089 180.163 705.018Z" fill="#4285F5"/>
<path d="M188.275 643.282L229.524 589.222L192.954 561.318L183.104 574.228L206.954 592.426L185.406 620.667L161.556 602.469L151.705 615.378L188.275 643.282Z" fill="#FFA600"/>
<path d="M367.28 804.625C381.769 815.68 384.552 836.388 373.497 850.878L372.283 852.468C361.228 866.957 340.52 869.74 326.03 858.685L299 838.06L340.25 784L367.28 804.625Z" fill="#4AF2CF"/>
<path d="M340.31 897.249V897.249C317.528 927.106 274.857 932.841 245 910.06V910.06L286.249 856L340.31 897.249Z" fill="#E6E6E6"/>
<circle cx="67.2733" cy="618.879" r="34" transform="rotate(-142.655 67.2733 618.879)" fill="#F0335E"/>
<path d="M172.73 877.962L131.48 932.022L168.051 959.926L177.901 947.016L154.051 928.818L175.599 900.577L199.449 918.776L209.3 905.866L172.73 877.962Z" fill="#FFA600"/>
<path d="M47.1382 755.717L80.5283 781.195L90.234 768.475L69.564 752.703L100.501 712.158L87.7809 702.452L47.1382 755.717Z" fill="#26C9FA"/>
<path d="M143.639 719.916C113.782 697.134 108.046 654.463 130.828 624.606L184.888 665.855L143.639 719.916Z" fill="#E6E6E6"/>
<path fill-rule="evenodd" clip-rule="evenodd" d="M134.169 559.232C139.864 551.767 138.43 541.1 130.966 535.404C123.502 529.709 112.834 531.143 107.139 538.607C101.443 546.071 102.877 556.739 110.341 562.434C117.806 568.13 128.473 566.696 134.169 559.232ZM147.684 569.544C159.074 554.616 156.207 533.28 141.278 521.889C126.35 510.499 105.014 513.366 93.6237 528.295C82.233 543.223 85.1008 564.559 100.029 575.949C114.957 587.34 136.293 584.472 147.684 569.544Z" fill="#4285F5"/>
<path d="M200.466 1079L225.943 1045.61L213.223 1035.9L197.452 1056.57L156.906 1025.64L147.201 1038.36L200.466 1079Z" fill="#26C9FA"/>
<rect x="262.528" y="999.31" width="68" height="16" transform="rotate(-142.655 262.528 999.31)" fill="#FCD926"/>
<path d="M105.47 910.904L145.81 858.036L73.0181 844.633L105.47 910.904Z" fill="#593B82"/>
<path d="M283.978 715.678L324.317 662.81L356.466 729.479L283.978 715.678Z" fill="#593B82"/>
<path d="M112 792.57L166.061 833.819L193.964 797.249L181.055 787.399L162.856 811.249L134.616 789.701L152.814 765.851L139.904 756L112 792.57Z" fill="#FFA600"/>
<circle cx="223.772" cy="848.983" r="34" transform="rotate(-142.655 223.772 848.983)" fill="#F0335E"/>
<circle cx="400.495" cy="762.444" r="34" transform="rotate(-142.655 400.495 762.444)" fill="#F0335E"/>
<rect x="250.963" y="801.807" width="68" height="16" transform="rotate(-52.6554 250.963 801.807)" fill="#FCD926"/>
<path d="M74.0786 956.147C63.0229 970.636 42.3147 973.42 27.8255 962.364L26.2355 961.151C11.7463 950.095 8.96279 929.387 20.0184 914.898L40.6431 887.868L94.7032 929.117L74.0786 956.147Z" fill="#4AF2CF"/>
<path d="M297.288 642.185L263.897 616.708L254.192 629.428L274.862 645.2L243.925 685.745L256.645 695.451L297.288 642.185Z" fill="#26C9FA"/>
<path d="M17.0718 1065.48L57.4111 1012.61L89.5599 1079.28L17.0718 1065.48Z" fill="#593B82"/>
<path d="M38.4291 1179.26L92.4893 1220.51L120.393 1183.94L107.483 1174.09L89.2851 1197.94L61.0447 1176.39L79.2429 1152.54L66.333 1142.69L38.4291 1179.26Z" fill="#FFA600"/>
<circle cx="133.588" cy="1112.25" r="34" transform="rotate(-142.655 133.588 1112.25)" fill="#F0335E"/>
</svg>
