<svg width="30" height="25" viewBox="0 0 30 25" fill="none" xmlns="http://www.w3.org/2000/svg">
<path d="M5.39708e-08 12L3.59806e-08 13C1.6109e-08 14.1046 0.89543 15 2 15L28 15C29.1046 15 30 14.1046 30 13L30 12C30 10.8954 29.1046 10 28 10L2 10C0.895431 10 7.38424e-08 10.8954 5.39708e-08 12Z" fill="#FFDA00"/>
<path d="M5.23835e-08 2L3.49223e-08 3C1.56353e-08 4.10457 0.89543 5 2 5L28 5C29.1046 5 30 4.10457 30 3L30 2C30 0.89543 29.1046 -2.39811e-07 28 -2.48807e-07L2 -4.60549e-07C0.895431 -4.69545e-07 7.16705e-08 0.89543 5.23835e-08 2Z" fill="#FFDA00"/>
<path d="M4.72629e-08 22L3.15086e-08 23C1.41069e-08 24.1046 0.89543 25 2 25L28 25C29.1046 25 30 24.1046 30 23L30 22C30 20.8954 29.1046 20 28 20L2 20C0.895431 20 6.46646e-08 20.8954 4.72629e-08 22Z" fill="#FFDA00"/>
</svg>
