<svg width="273" height="197" viewBox="0 0 273 197" fill="none" xmlns="http://www.w3.org/2000/svg">
<circle cx="89.8044" cy="148.267" r="6.55926" stroke="#171717" stroke-width="5"/>
<path d="M89.6885 51.2642V140.355M186.575 148.151H97.1413" stroke="#171717" stroke-width="5" stroke-linecap="round" stroke-linejoin="round"/>
<path d="M80 60.2076L89.6887 51.2642L99.3774 60.2076" stroke="#171717" stroke-width="5" stroke-linecap="round" stroke-linejoin="round"/>
<path d="M179.122 138.462L188.065 148.151L179.122 157.84" stroke="#171717" stroke-width="5" stroke-linecap="round" stroke-linejoin="round"/>
<path d="M114.283 148.15L114.283 142.933" stroke="#171717" stroke-width="5" stroke-linecap="round" stroke-linejoin="round"/>
<path d="M132.915 148.15L132.915 142.933" stroke="#171717" stroke-width="5" stroke-linecap="round" stroke-linejoin="round"/>
<path d="M150.802 148.15L150.802 142.933" stroke="#171717" stroke-width="5" stroke-linecap="round" stroke-linejoin="round"/>
<path d="M168.688 148.15L168.688 142.933" stroke="#171717" stroke-width="5" stroke-linecap="round" stroke-linejoin="round"/>
<path d="M89.6895 70.6416L94.9064 70.6416" stroke="#171717" stroke-width="5" stroke-linecap="round" stroke-linejoin="round"/>
<path d="M89.6885 89.2734L94.9055 89.2734" stroke="#171717" stroke-width="5" stroke-linecap="round" stroke-linejoin="round"/>
<path d="M89.6885 107.16L94.9055 107.16" stroke="#171717" stroke-width="5" stroke-linecap="round" stroke-linejoin="round"/>
<path d="M89.6885 125.047L94.9055 125.047" stroke="#171717" stroke-width="5" stroke-linecap="round" stroke-linejoin="round"/>
<rect x="59.5" y="21.5" width="153" height="153" rx="7.5" stroke="#171717" stroke-width="5"/>
<rect x="120.5" y="53.5" width="64" height="64" rx="7.5" stroke="#171717" stroke-width="5"/>
<path fill-rule="evenodd" clip-rule="evenodd" d="M160.542 80.5441C163.453 80.5441 165.814 78.1837 165.814 75.2721C165.814 72.3604 163.453 70 160.542 70C157.63 70 155.27 72.3604 155.27 75.2721C155.27 78.1837 157.63 80.5441 160.542 80.5441ZM160.542 85.5441C166.215 85.5441 170.814 80.9452 170.814 75.2721C170.814 69.599 166.215 65 160.542 65C154.868 65 150.27 69.599 150.27 75.2721C150.27 80.9452 154.868 85.5441 160.542 85.5441Z" fill="#171717"/>
<path fill-rule="evenodd" clip-rule="evenodd" d="M142.272 80.5441C145.184 80.5441 147.544 78.1837 147.544 75.2721C147.544 72.3604 145.184 70 142.272 70C139.36 70 137 72.3604 137 75.2721C137 78.1837 139.36 80.5441 142.272 80.5441ZM142.272 85.5441C147.945 85.5441 152.544 80.9452 152.544 75.2721C152.544 69.599 147.945 65 142.272 65C136.599 65 132 69.599 132 75.2721C132 80.9452 136.599 85.5441 142.272 85.5441Z" fill="#171717"/>
<path fill-rule="evenodd" clip-rule="evenodd" d="M140.121 97.6334V80.459H135.121V98.1334C135.121 100.619 137.136 102.633 139.621 102.633H163.727C166.213 102.633 168.227 100.619 168.227 98.1334V80.459H163.227V97.6334H140.121Z" fill="#171717"/>
<path fill-rule="evenodd" clip-rule="evenodd" d="M175.621 82.6467C176.273 83.1166 176.659 83.8712 176.659 84.6748V97.3227C176.659 98.1263 176.273 98.8809 175.621 99.3508C174.969 99.8207 174.131 99.9485 173.369 99.6944L164.937 96.8838C163.916 96.5435 163.228 95.5881 163.228 94.5121V87.4855C163.228 86.4094 163.916 85.454 164.937 85.1138L173.369 82.3031C174.131 82.049 174.969 82.1768 175.621 82.6467ZM168.228 89.2874V92.7102L171.659 93.8541V88.1434L168.228 89.2874Z" fill="#171717"/>
</svg>
