<svg width="45" height="34" viewBox="0 0 45 34" fill="none" xmlns="http://www.w3.org/2000/svg">
<path d="M5.91489 0C2.64794 0 0 2.63763 0 5.89186C0 9.14609 2.64794 11.7837 5.91489 11.7837C9.18184 11.7837 11.8298 9.14609 11.8298 5.89186C11.8298 2.63763 9.18124 0 5.91489 0Z" fill="#E61753"/>
<path d="M31.6709 11.7768L43.5007 5.89205L31.6709 0.00732422V11.7768Z" fill="#4D2A86"/>
<path d="M0 23.5112H2.03436C2.12226 24.6674 2.92715 25.2386 4.18532 25.2386C5.6486 25.2386 6.26333 24.7553 6.26333 23.9796C6.26333 23.2917 5.82441 22.9257 4.85866 22.7211L3.36608 22.3993C1.59543 22.0189 0.336668 21.2725 0.336668 19.4135C0.336668 17.6861 1.82925 16.5156 4.19967 16.5156C6.49715 16.5156 8.13623 17.8476 8.15059 19.7652H6.11742C6.05882 18.9751 5.48834 18.316 4.17097 18.316C2.94151 18.316 2.40033 18.7843 2.40033 19.4135C2.40033 19.9405 2.72204 20.3209 3.7177 20.5404L5.10802 20.8329C7.01022 21.2282 8.32759 22.0626 8.32759 23.9359C8.32759 25.7656 7.05447 27.024 4.18652 27.024C1.52188 27.024 0.102854 25.6334 0 23.5112Z" fill="white"/>
<path d="M10.4487 24.7116V20.95H9.20485V19.2813H10.5216V17.6861L12.263 17.2764H12.4095V19.2819H14.2387V20.9506H12.4095V24.2881C12.4095 25.0053 12.7168 25.3127 13.3902 25.3127C13.6682 25.3127 13.9026 25.2691 14.1221 25.1955H14.268V26.8349C14.0336 26.9079 13.4781 27.0251 12.834 27.0251C11.1513 27.0239 10.4487 26.058 10.4487 24.7116Z" fill="white"/>
<path d="M22.5364 19.2812V23.9358C22.5364 25.5753 21.4684 27.0239 19.1709 27.0239H19.156C16.8441 27.0239 15.7905 25.5753 15.7905 23.9358V19.2812H17.7513V23.6284C17.7513 24.5944 18.1609 25.1949 19.1709 25.1949C20.166 25.1949 20.5756 24.595 20.5756 23.6284V19.2812H22.5364Z" fill="white"/>
<path d="M23.8681 23.0866C23.8681 20.8179 25.0097 19.1491 26.9998 19.1491C28.0828 19.1491 28.7118 19.6031 29.0922 20.1007H29.1508V16.061H31.1116V26.8924H29.3553L29.1502 26.073H29.0916C28.7112 26.5706 28.0822 27.0246 26.9992 27.0246C25.0533 27.024 23.8681 25.4138 23.8681 23.0866ZM29.2243 23.0866C29.2243 21.9011 28.7854 20.8765 27.5416 20.8765C26.2828 20.8765 25.8588 21.8861 25.8588 23.0866C25.8588 24.272 26.3127 25.2966 27.5416 25.2966C28.7704 25.2972 29.2243 24.272 29.2243 23.0866Z" fill="white"/>
<path d="M32.5312 17.1291C32.5312 16.412 32.9408 15.958 33.7457 15.958C34.5213 15.958 34.9602 16.412 34.9602 17.1291C34.9602 17.8756 34.5213 18.3296 33.7457 18.3296C32.9414 18.3296 32.5312 17.8756 32.5312 17.1291ZM32.7506 19.2812H34.7114V26.8923H32.7506V19.2812Z" fill="white"/>
<path d="M35.9409 23.1012C35.9409 20.8475 37.214 19.1494 39.6431 19.1494C42.0577 19.1494 43.3309 20.8475 43.3309 23.1012C43.3309 25.3406 42.087 27.0237 39.6431 27.0237C37.1847 27.0237 35.9409 25.3549 35.9409 23.1012ZM41.3407 23.1012C41.3407 21.6376 40.741 20.8762 39.6431 20.8762C38.5308 20.8762 37.9454 21.652 37.9454 23.1012C37.9454 24.5504 38.5451 25.2969 39.6431 25.2969C40.741 25.2969 41.3407 24.5498 41.3407 23.1012Z" fill="white"/>
<path d="M42.3323 32.5396C42.002 32.5396 41.8185 32.2958 41.8185 31.9812C41.8185 31.6666 42.0026 31.4193 42.3323 31.4193C42.6562 31.4193 42.8462 31.6666 42.8462 31.9812C42.8462 32.2958 42.6562 32.5396 42.3323 32.5396ZM42.3323 30.8965C41.715 30.8965 41.2479 31.3818 41.2479 31.9812C41.2479 32.5806 41.715 33.0618 42.3323 33.0618C42.9497 33.0618 43.4162 32.5806 43.4162 31.9812C43.4162 31.3818 42.9497 30.8965 42.3323 30.8965Z" fill="white"/>
<path d="M17.0122 32.5396C16.683 32.5396 16.4995 32.2958 16.4995 31.9812C16.4995 31.6666 16.6836 31.4193 17.0122 31.4193C17.3361 31.4193 17.5261 31.6666 17.5261 31.9812C17.5261 32.2958 17.3355 32.5396 17.0122 32.5396ZM17.0122 30.8965C16.3948 30.8965 15.9277 31.3818 15.9277 31.9812C15.9277 32.5806 16.3948 33.0618 17.0122 33.0618C17.6295 33.0618 18.0967 32.5806 18.0967 31.9812C18.0967 31.3818 17.6295 30.8965 17.0122 30.8965Z" fill="white"/>
<path d="M1.4278 31.3897V31.7511H2.27901C2.28661 31.7511 2.29363 31.7511 2.29772 31.7523C2.29889 31.7523 2.30064 31.7523 2.30123 31.7528C2.3024 31.7534 2.30357 31.7546 2.30474 31.7552C2.30591 31.7558 2.30766 31.7575 2.30824 31.7587C2.30883 31.7605 2.31058 31.7622 2.31117 31.7645C2.31117 31.7669 2.31175 31.7698 2.31292 31.7721C2.31351 31.7774 2.31351 31.7821 2.31351 31.7897V32.1569C2.31351 32.185 2.30415 32.2002 2.27901 32.2002H1.4278V32.5616H2.29948C2.33572 32.5616 2.33572 32.5616 2.33572 32.6019V32.9674C2.33572 33.0042 2.33163 33.0107 2.29948 33.0107H0.927358C0.897542 33.0107 0.89345 33.0042 0.89345 32.9674V30.9699C0.89345 30.943 0.891111 30.9395 0.922097 30.9395H2.30123C2.3328 30.9395 2.33572 30.943 2.33572 30.9786V31.3459C2.33572 31.3739 2.32637 31.3891 2.30123 31.3891H1.4278V31.3897Z" fill="white"/>
<path d="M6.56901 33.0626C5.98497 33.0626 5.70377 32.7328 5.70377 32.2293V30.9581C5.70377 30.9399 5.70377 30.9399 5.72072 30.9399H6.23285C6.25273 30.9399 6.25273 30.9399 6.25273 30.9645V32.3241C6.25273 32.5281 6.42403 32.6141 6.57427 32.6141C6.72102 32.6141 6.89465 32.5316 6.89465 32.3241V30.9616C6.89465 30.944 6.89465 30.9405 6.91394 30.9405H7.41438C7.43017 30.9405 7.43017 30.9405 7.43017 30.9616V32.2603C7.43017 32.7509 7.17586 33.0626 6.56901 33.0626Z" fill="white"/>
<path d="M11.7634 31.9884H11.4612V31.3896H11.7634C11.94 31.3896 12.0218 31.5195 12.0218 31.689C12.0212 31.8586 11.94 31.9884 11.7634 31.9884ZM12.7491 32.9281C12.5731 32.641 12.3977 32.334 12.3182 32.2077C12.5041 32.12 12.6024 31.92 12.6024 31.6393C12.6024 31.2633 12.3521 30.9405 11.8821 30.9405H10.935C10.9257 30.9405 10.9099 30.937 10.9099 30.968V32.9837C10.9099 33.0141 10.9099 33.0118 10.935 33.0118H11.4372C11.4582 33.0118 11.4612 33.0082 11.4612 32.9837V32.4065H11.816C11.8459 32.4539 12.0429 32.7673 12.1382 32.9504C12.1656 33.0053 12.1791 33.0118 12.2036 33.0118H12.7427C12.7766 33.0112 12.7853 32.989 12.7491 32.9281Z" fill="white"/>
<path d="M32.8596 33.0103H31.5682C31.5396 33.0103 31.5396 33.0126 31.5396 32.9822V30.9671C31.5396 30.9356 31.5396 30.9391 31.5682 30.9391H32.0622C32.0868 30.9391 32.0891 30.9426 32.0891 30.9671V32.5647H32.8567C32.8813 32.5647 32.8836 32.5705 32.8836 32.5951V32.9822C32.8836 33.0074 32.8836 33.0103 32.8596 33.0103Z" fill="white"/>
<path d="M37.0789 33.0624C36.4282 33.0624 35.9962 32.5712 35.9962 31.9841C35.9962 31.3584 36.4656 30.8965 37.0643 30.8965C37.5671 30.8965 37.8769 31.169 38.0131 31.4807C38.0295 31.5163 38.0172 31.5292 38.0049 31.5356L37.5489 31.7128C37.5308 31.7186 37.5285 31.7128 37.5226 31.697C37.4338 31.514 37.2876 31.4198 37.0748 31.4198C36.7702 31.4198 36.5744 31.6608 36.5744 31.9876C36.5744 32.3695 36.8293 32.5437 37.0859 32.5437C37.2917 32.5437 37.4384 32.4432 37.5127 32.2876C37.5226 32.2718 37.5261 32.2607 37.5489 32.266L38.0073 32.3917C38.0383 32.3976 38.0394 32.4128 38.0342 32.4315C37.8974 32.763 37.5565 33.0624 37.0789 33.0624Z" fill="white"/>
<path d="M26.9649 32.3169L27.1777 31.8193L27.3905 32.3169H26.9649ZM28.2546 32.9678C27.9511 32.3602 27.3156 31.0743 27.1975 30.8346C27.1894 30.8188 27.1666 30.8188 27.1584 30.8346C27.0403 31.0738 26.4048 32.3602 26.1014 32.9678C26.0832 33.0075 26.0879 33.011 26.1148 33.011H26.6854C26.7018 33.011 26.7129 33.0075 26.7222 32.9847C26.7591 32.904 26.8053 32.79 26.8345 32.714H27.5208C27.5507 32.7894 27.5963 32.9035 27.6331 32.9847C27.6424 33.007 27.6536 33.011 27.6699 33.011H28.2405C28.268 33.011 28.2721 33.0075 28.2546 32.9678Z" fill="white"/>
<path d="M22.6053 31.7108C22.6053 31.8844 22.5211 32.0283 22.3072 32.0283H22.0511V31.3897H22.3072C22.5211 31.3897 22.6053 31.5371 22.6053 31.7108ZM22.4451 30.9401H21.529C21.5173 30.9401 21.5015 30.9366 21.5015 30.9675V32.9832C21.5015 33.0136 21.5015 33.0113 21.529 33.0113H22.0236C22.0482 33.0113 22.0511 33.0078 22.0511 32.9832V32.4797H22.4445C22.8661 32.4797 23.1707 32.1856 23.1707 31.7108C23.1712 31.2359 22.8672 30.9401 22.4451 30.9401Z" fill="white"/>
<path d="M43.9658 30.833V30.94H44.1003V31.3002H44.2201V30.94H44.3546V30.833H43.9658ZM44.8702 30.833L44.7486 31.0406H44.7428L44.6182 30.833H44.4867V31.3008H44.5966V31.0108H44.6025L44.7381 31.2254H44.7527L44.8843 31.0137H44.8901V31.3008H45V30.833H44.8702Z" fill="white"/>
<path d="M25.6133 0H22.7744V11.7837H25.6133V0Z" fill="#FFDA00"/>
<path d="M19.6984 0H16.8594V11.7837H19.6984V0Z" fill="#FFDA00"/>
</svg>
