<svg width="273" height="254" viewBox="0 0 273 254" fill="none" xmlns="http://www.w3.org/2000/svg">
<path d="M83.5 113L83.0279 110.545C81.7822 110.785 80.9134 111.919 81.0068 113.184L83.5 113ZM107 147L104.724 148.035L109.5 147H107ZM171.5 111L169.022 110.67L169 110.834V111H171.5ZM182 181.5L184.085 182.879L182 181.5ZM118.25 197.5L116.9 199.604L116.9 199.604L118.25 197.5ZM141 92L141.374 89.5281L141 92ZM109.5 147V58H104.5V147H109.5ZM127 58V100.5H132V58H127ZM127 100.5V109H132V100.5H127ZM150 103.75V115.5H155V103.75H150ZM169 111V120.5H174V111H169ZM171.5 111C172.015 113.446 172.014 113.447 172.013 113.447C172.012 113.447 172.011 113.447 172.011 113.447C172.009 113.448 172.008 113.448 172.007 113.448C172.005 113.448 172.004 113.449 172.003 113.449C172.001 113.449 172.001 113.449 172.004 113.449C172.009 113.448 172.022 113.445 172.044 113.441C172.087 113.434 172.163 113.421 172.267 113.406C172.477 113.377 172.802 113.34 173.217 113.316C174.051 113.27 175.226 113.283 176.557 113.523C179.187 113.996 182.417 115.342 184.958 118.942L189.042 116.058C185.583 111.158 181.063 109.254 177.443 108.602C175.649 108.279 174.074 108.261 172.939 108.324C172.37 108.356 171.906 108.408 171.573 108.455C171.406 108.478 171.271 108.5 171.172 108.518C171.123 108.527 171.082 108.534 171.051 108.54C171.035 108.543 171.022 108.546 171.011 108.548C171.005 108.549 171.001 108.55 170.996 108.551C170.994 108.552 170.992 108.552 170.99 108.553C170.989 108.553 170.988 108.553 170.987 108.553C170.986 108.553 170.985 108.554 171.5 111ZM184.958 118.942C185.467 119.664 186.017 120.901 186.518 122.719C187.009 124.5 187.412 126.69 187.708 129.2C188.301 134.217 188.45 140.351 188.096 146.737C187.743 153.12 186.892 159.692 185.514 165.587C184.127 171.518 182.243 176.599 179.915 180.121L184.085 182.879C186.88 178.651 188.934 172.92 190.382 166.726C191.839 160.496 192.723 153.63 193.089 147.013C193.455 140.399 193.307 133.97 192.674 128.613C192.357 125.935 191.915 123.484 191.338 121.391C190.772 119.333 190.033 117.461 189.042 116.058L184.958 118.942ZM179.915 180.121C169.095 196.488 156.495 201.728 145.509 202.279C134.353 202.838 124.545 198.568 119.6 195.396L116.9 199.604C122.455 203.167 133.284 207.897 145.759 207.273C158.403 206.639 172.428 200.512 184.085 182.879L179.915 180.121ZM119.6 195.396C88.3889 175.376 88.5164 146.994 85.9932 112.816L81.0068 113.184C83.4811 146.699 83.2231 178.003 116.9 199.604L119.6 195.396ZM107 58C109.5 58 109.5 58.0009 109.5 58.0018C109.5 58.002 109.5 58.0029 109.5 58.0033C109.5 58.0042 109.5 58.0049 109.5 58.0054C109.5 58.0063 109.5 58.0065 109.5 58.0058C109.5 58.0045 109.5 57.9999 109.5 57.9922C109.5 57.9769 109.501 57.9491 109.502 57.9097C109.504 57.8309 109.508 57.706 109.518 57.5417C109.537 57.2124 109.575 56.7291 109.654 56.1444C109.812 54.9618 110.124 53.4293 110.726 51.932C111.33 50.4297 112.178 49.0776 113.342 48.1116C114.463 47.1817 116.004 46.5 118.25 46.5V41.5C114.871 41.5 112.193 42.5683 110.15 44.2634C108.15 45.9224 106.889 48.0703 106.086 50.068C105.282 52.0707 104.891 54.0382 104.698 55.4806C104.6 56.2084 104.551 56.8189 104.526 57.2552C104.514 57.4737 104.507 57.6496 104.504 57.7758C104.502 57.839 104.501 57.8898 104.501 57.9274C104.5 57.9463 104.5 57.9618 104.5 57.9739C104.5 57.98 104.5 57.9852 104.5 57.9895C104.5 57.9917 104.5 57.9937 104.5 57.9954C104.5 57.9963 104.5 57.9974 104.5 57.9979C104.5 57.999 104.5 58 107 58ZM118.25 46.5C120.496 46.5 122.037 47.1817 123.158 48.1116C124.322 49.0776 125.17 50.4297 125.774 51.932C126.376 53.4293 126.688 54.9618 126.846 56.1444C126.925 56.7291 126.963 57.2124 126.982 57.5417C126.992 57.706 126.996 57.8309 126.998 57.9097C126.999 57.9491 127 57.9769 127 57.9922C127 57.9999 127 58.0045 127 58.0058C127 58.0065 127 58.0063 127 58.0054C127 58.0049 127 58.0042 127 58.0033C127 58.0029 127 58.002 127 58.0018C127 58.0009 127 58 129.5 58C132 58 132 57.999 132 57.9979C132 57.9974 132 57.9963 132 57.9954C132 57.9937 132 57.9917 132 57.9895C132 57.9852 132 57.98 132 57.9739C132 57.9618 132 57.9463 131.999 57.9274C131.999 57.8898 131.998 57.839 131.996 57.7758C131.993 57.6496 131.986 57.4737 131.974 57.2552C131.949 56.8189 131.9 56.2084 131.802 55.4806C131.609 54.0382 131.218 52.0707 130.414 50.068C129.611 48.0703 128.35 45.9224 126.35 44.2634C124.307 42.5683 121.629 41.5 118.25 41.5V46.5ZM152.5 103.75C154.969 104.145 154.968 104.147 154.968 104.149C154.968 104.149 154.968 104.151 154.967 104.152C154.967 104.155 154.967 104.157 154.966 104.159C154.966 104.163 154.965 104.167 154.964 104.171C154.963 104.178 154.962 104.184 154.961 104.189C154.959 104.199 154.958 104.204 154.958 104.204C154.958 104.204 154.962 104.188 154.97 104.157C154.987 104.095 155.023 103.983 155.085 103.845C155.211 103.565 155.425 103.221 155.78 102.927C156.352 102.455 158.003 101.544 162.247 102.884L163.753 98.116C158.497 96.4562 154.898 97.1702 152.595 99.0726C151.513 99.967 150.883 100.998 150.524 101.796C150.344 102.197 150.227 102.55 150.153 102.817C150.116 102.952 150.088 103.067 150.069 103.157C150.059 103.203 150.051 103.242 150.045 103.275C150.042 103.292 150.04 103.307 150.037 103.32C150.036 103.327 150.035 103.333 150.034 103.339C150.034 103.342 150.033 103.344 150.033 103.347C150.032 103.349 150.032 103.351 150.032 103.351C150.032 103.353 150.031 103.355 152.5 103.75ZM162.247 102.884C166.312 104.168 167.858 106.284 168.505 107.837C168.849 108.663 168.975 109.421 169.014 109.963C169.034 110.232 169.032 110.441 169.027 110.568C169.024 110.631 169.021 110.673 169.019 110.691C169.018 110.7 169.018 110.703 169.018 110.7C169.018 110.698 169.019 110.695 169.019 110.69C169.02 110.687 169.02 110.684 169.02 110.681C169.021 110.679 169.021 110.677 169.021 110.676C169.021 110.675 169.021 110.673 169.022 110.673C169.022 110.671 169.022 110.67 171.5 111C173.978 111.33 173.978 111.329 173.978 111.327C173.979 111.327 173.979 111.325 173.979 111.324C173.979 111.321 173.98 111.319 173.98 111.316C173.981 111.311 173.981 111.306 173.982 111.299C173.984 111.287 173.985 111.273 173.987 111.257C173.991 111.225 173.995 111.186 173.999 111.139C174.007 111.046 174.016 110.924 174.022 110.776C174.035 110.481 174.036 110.08 174.001 109.599C173.931 108.642 173.713 107.337 173.12 105.913C171.892 102.966 169.188 99.8323 163.753 98.116L162.247 102.884ZM131.992 100.699C132.344 96.3017 133.628 95.0535 134.571 94.5871C135.848 93.955 137.741 94.0356 140.626 94.4719L141.374 89.5281C138.726 89.1277 135.251 88.6717 132.353 90.1057C129.121 91.7051 127.422 95.1254 127.008 100.301L131.992 100.699ZM140.626 94.4719C143.431 94.8961 145.713 95.4325 147.328 96.6647C148.747 97.7467 150 99.6514 150 103.75H155C155 98.4757 153.296 94.9277 150.36 92.689C147.622 90.6005 144.154 89.9484 141.374 89.5281L140.626 94.4719ZM83.5 113C83.9721 115.455 83.9707 115.455 83.9694 115.456C83.969 115.456 83.9677 115.456 83.9669 115.456C83.9654 115.456 83.964 115.457 83.9628 115.457C83.9605 115.457 83.9589 115.458 83.958 115.458C83.9563 115.458 83.9576 115.458 83.9617 115.457C83.97 115.456 83.9897 115.452 84.0203 115.448C84.0814 115.438 84.1854 115.424 84.3271 115.409C84.6111 115.379 85.0417 115.348 85.5785 115.352C86.6595 115.358 88.1228 115.504 89.6741 116.047C92.6293 117.081 96.2861 119.676 98.0793 126.625L102.921 125.375C100.714 116.824 95.8707 112.919 91.3259 111.328C89.1272 110.558 87.0905 110.361 85.609 110.352C84.8645 110.347 84.2482 110.39 83.8057 110.436C83.5841 110.46 83.4049 110.484 83.2737 110.504C83.208 110.514 83.1543 110.522 83.1131 110.53C83.0925 110.533 83.0751 110.536 83.0608 110.539C83.0537 110.54 83.0474 110.541 83.0419 110.542C83.0392 110.543 83.0366 110.543 83.0343 110.544C83.0331 110.544 83.0315 110.544 83.0309 110.544C83.0294 110.545 83.0279 110.545 83.5 113ZM98.0793 126.625C100.093 134.427 101.735 139.737 102.883 143.116C103.457 144.806 103.907 146.014 104.219 146.81C104.375 147.208 104.496 147.504 104.581 147.705C104.624 147.805 104.657 147.882 104.681 147.937C104.693 147.964 104.702 147.986 104.709 148.002C104.713 148.01 104.716 148.017 104.719 148.022C104.72 148.025 104.721 148.027 104.722 148.029C104.722 148.03 104.723 148.031 104.723 148.032C104.723 148.033 104.723 148.033 104.724 148.033C104.724 148.034 104.724 148.035 107 147C109.276 145.965 109.276 145.966 109.276 145.966C109.276 145.967 109.277 145.967 109.277 145.967C109.277 145.968 109.277 145.968 109.277 145.969C109.278 145.969 109.278 145.97 109.278 145.97C109.278 145.97 109.277 145.968 109.276 145.965C109.273 145.96 109.269 145.949 109.261 145.932C109.247 145.899 109.222 145.842 109.188 145.762C109.121 145.602 109.016 145.346 108.875 144.987C108.593 144.267 108.168 143.131 107.617 141.509C106.515 138.263 104.907 133.073 102.921 125.375L98.0793 126.625Z" fill="black"/>
<path fill-rule="evenodd" clip-rule="evenodd" d="M133.246 35.5941C134.222 34.6177 135.805 34.6177 136.782 35.5941C147.051 45.8633 147.051 62.513 136.782 72.7822C135.805 73.7585 134.222 73.7585 133.246 72.7822C132.27 71.8059 132.27 70.223 133.246 69.2466C141.563 60.9301 141.563 47.4462 133.246 39.1296C132.27 38.1533 132.27 36.5704 133.246 35.5941ZM103.129 35.5941C104.105 36.5704 104.105 38.1533 103.129 39.1296C94.8124 47.4462 94.8124 60.9301 103.129 69.2466C104.105 70.223 104.105 71.8059 103.129 72.7822C102.153 73.7585 100.57 73.7585 99.5934 72.7822C89.3242 62.513 89.3242 45.8633 99.5934 35.5941C100.57 34.6177 102.153 34.6177 103.129 35.5941Z" fill="black"/>
<path fill-rule="evenodd" clip-rule="evenodd" d="M142.137 27.2243C143.113 26.248 144.696 26.248 145.673 27.2243C160.708 42.2599 160.708 66.6374 145.673 81.6729C144.696 82.6492 143.113 82.6492 142.137 81.6729C141.161 80.6966 141.161 79.1137 142.137 78.1374C155.22 65.0545 155.22 43.8428 142.137 30.7598C141.161 29.7835 141.161 28.2006 142.137 27.2243ZM94.7595 27.2243C95.7358 28.2006 95.7358 29.7835 94.7595 30.7598C81.6765 43.8428 81.6765 65.0545 94.7595 78.1374C95.7358 79.1137 95.7358 80.6966 94.7595 81.6729C93.7832 82.6492 92.2002 82.6492 91.2239 81.6729C76.1884 66.6374 76.1884 42.2599 91.2239 27.2243C92.2002 26.248 93.7832 26.248 94.7595 27.2243Z" fill="black"/>
</svg>
