<svg width="180" height="200" viewBox="0 0 180 200" fill="none" xmlns="http://www.w3.org/2000/svg">
<path d="M68.941 136.937H61.879L44.917 182.477V183.137H50.923L55.279 171.059H75.475L79.831 183.137H85.969V182.477L68.941 136.937ZM57.127 165.911L65.245 143.339H65.509L73.627 165.911H57.127ZM117.493 164.129C123.499 162.413 127.459 157.661 127.459 150.797C127.459 142.943 122.245 136.937 112.807 136.937H94.5252V183.137H100.267V164.855H111.487L123.631 183.137H129.901V182.477L117.493 164.129ZM100.267 142.217H112.477C118.285 142.217 121.453 145.451 121.453 150.863C121.453 156.407 118.285 159.575 112.477 159.575H100.267V142.217Z" fill="#171717"/>
<path d="M110.539 29.6367V59.4815C110.539 62.716 112.103 65.7508 114.738 67.6271L143.539 88.1367M110.539 29.6367L137.738 10.2675C141.21 7.79507 145.867 7.79508 149.339 10.2675L176.539 29.6367M110.539 29.6367L143.539 53.1367M143.539 88.1367L172.339 67.6271C174.974 65.7508 176.539 62.716 176.539 59.4815V29.6367M143.539 88.1367V53.1367M176.539 29.6367L143.539 53.1367" stroke="#171717" stroke-width="5" stroke-linecap="round"/>
<path d="M27.1039 42.6748L12.3481 89.753" stroke="#171717" stroke-width="5"/>
<path d="M32.0239 42.6748L46.7797 89.753" stroke="#171717" stroke-width="5"/>
<circle cx="38.0801" cy="16.4088" r="7.77206" stroke="#171717" stroke-width="5"/>
<circle cx="19.8106" cy="16.4088" r="7.77206" stroke="#171717" stroke-width="5"/>
<path d="M15.1596 21.5952V39.2697C15.1596 40.3742 16.055 41.2697 17.1596 41.2697H41.266C42.3705 41.2697 43.266 40.3742 43.266 39.2697V21.5952" stroke="#171717" stroke-width="5"/>
<path d="M51.698 25.8115L43.2661 28.6222V35.6488L51.698 38.4594V25.8115Z" stroke="#171717" stroke-width="5" stroke-linejoin="round"/>
<path d="M111.538 11.8987C96.0415 6.89249 79.0353 6.89249 63.5384 11.8987M163.861 102.304C160.393 118.755 151.741 133.296 139.693 144.137M35.3837 144.137C23.3407 133.3 14.6905 118.767 11.2202 102.324" stroke="#171717" stroke-width="5" stroke-linecap="round"/>
<circle cx="87.5386" cy="86.1367" r="12.5" stroke="#171717" stroke-width="5"/>
<path d="M109.203 4L113.8 12.767L105.033 17.3648" stroke="#171717" stroke-width="5" stroke-linecap="round" stroke-linejoin="round"/>
<path d="M148.858 144.921L139.002 143.992L139.931 134.136" stroke="#171717" stroke-width="5" stroke-linecap="round" stroke-linejoin="round"/>
<path d="M5.73285 109.985L10.7821 101.47L19.2971 106.52" stroke="#171717" stroke-width="5" stroke-linecap="round" stroke-linejoin="round"/>
</svg>
