<svg width="199" height="146" viewBox="0 0 199 146" fill="none" xmlns="http://www.w3.org/2000/svg">
<path d="M3 143.28H196" stroke="#171717" stroke-width="5" stroke-linecap="round"/>
<path d="M27.9698 36.7158H170.496C174.638 36.7158 177.996 40.0737 177.996 44.2158V142.918H20.4698V44.2158C20.4698 40.0737 23.8277 36.7158 27.9698 36.7158Z" stroke="#171717" stroke-width="5" stroke-linecap="round"/>
<rect x="20.4698" y="2.5" width="157.526" height="23.8698" rx="7.5" stroke="#171717" stroke-width="5" stroke-linecap="round"/>
<path d="M67 72.5V102.345C67 105.579 68.5645 108.614 71.1993 110.49L100 131M67 72.5L94.1993 53.1308C97.6712 50.6584 102.329 50.6584 105.801 53.1308L133 72.5M67 72.5L100 96M100 131L128.801 110.49C131.435 108.614 133 105.579 133 102.345V72.5M100 131V96M133 72.5L100 96" stroke="#171717" stroke-width="5" stroke-linecap="round"/>
</svg>
