<svg width="273" height="197" viewBox="0 0 273 197" fill="none" xmlns="http://www.w3.org/2000/svg">
<path d="M127.316 99.4244L131.846 135.661H141.811L146.341 99.4244L152.682 93.5359C152.682 76.7762 155.219 57.2988 136.376 57.2988C117.532 57.2988 120.522 79.494 120.522 93.5359L127.316 99.4244Z" stroke="#171717" stroke-width="5"/>
<circle cx="135.748" cy="43.7101" r="6.55926" stroke="#171717" stroke-width="5"/>
<circle cx="91.3981" cy="153.267" r="6.55926" stroke="#171717" stroke-width="5"/>
<path d="M91.2822 56.2642V145.355M188.169 153.151H98.7351" stroke="#171717" stroke-width="5" stroke-linecap="round" stroke-linejoin="round"/>
<path d="M81.5938 65.2076L91.2824 56.2642L100.971 65.2076" stroke="#171717" stroke-width="5" stroke-linecap="round" stroke-linejoin="round"/>
<path d="M180.716 143.462L189.659 153.151L180.716 162.84" stroke="#171717" stroke-width="5" stroke-linecap="round" stroke-linejoin="round"/>
<path d="M115.877 153.151L115.877 147.934" stroke="#171717" stroke-width="5" stroke-linecap="round" stroke-linejoin="round"/>
<path d="M134.509 153.151L134.509 147.934" stroke="#171717" stroke-width="5" stroke-linecap="round" stroke-linejoin="round"/>
<path d="M152.396 153.151L152.396 147.934" stroke="#171717" stroke-width="5" stroke-linecap="round" stroke-linejoin="round"/>
<path d="M170.282 153.151L170.282 147.934" stroke="#171717" stroke-width="5" stroke-linecap="round" stroke-linejoin="round"/>
<path d="M91.2832 75.6416L96.5002 75.6416" stroke="#171717" stroke-width="5" stroke-linecap="round" stroke-linejoin="round"/>
<path d="M91.2822 94.2734L96.4992 94.2734" stroke="#171717" stroke-width="5" stroke-linecap="round" stroke-linejoin="round"/>
<path d="M91.2822 112.16L96.4992 112.16" stroke="#171717" stroke-width="5" stroke-linecap="round" stroke-linejoin="round"/>
<path d="M91.2822 130.047L96.4992 130.047" stroke="#171717" stroke-width="5" stroke-linecap="round" stroke-linejoin="round"/>
<rect x="59.5" y="21.5" width="153" height="153" rx="7.5" stroke="#171717" stroke-width="5"/>
</svg>
